<mxfile host="Electron" modified="2024-12-15T10:59:21.768Z" agent="Mozilla/5.0 (Windows NT 10.0; Win64; x64) AppleWebKit/537.36 (KHTML, like Gecko) draw.io/24.2.5 Chrome/120.0.6099.109 Electron/28.1.0 Safari/537.36" etag="VdUV5HZ0u286B5cWTi2U" version="24.2.5" type="device">
  <diagram name="Page-1" id="2YBvvXClWsGukQMizWep">
    <mxGraphModel dx="2284" dy="836" grid="1" gridSize="10" guides="1" tooltips="1" connect="1" arrows="1" fold="1" page="1" pageScale="1" pageWidth="850" pageHeight="1100" math="0" shadow="0">
      <root>
        <mxCell id="0" />
        <mxCell id="1" parent="0" />
        <mxCell id="CZLHfKdbHsDjYVJbHo4A-15" value="User" style="shape=umlLifeline;perimeter=lifelinePerimeter;whiteSpace=wrap;html=1;container=1;dropTarget=0;collapsible=0;recursiveResize=0;outlineConnect=0;portConstraint=eastwest;newEdgeStyle={&quot;curved&quot;:0,&quot;rounded&quot;:0};participant=umlActor;size=70;" vertex="1" parent="1">
          <mxGeometry x="80" y="80" width="50" height="640" as="geometry" />
        </mxCell>
        <mxCell id="CZLHfKdbHsDjYVJbHo4A-19" value="enter usernaem and password" style="html=1;verticalAlign=bottom;endArrow=block;curved=0;rounded=0;" edge="1" parent="1" target="CZLHfKdbHsDjYVJbHo4A-68">
          <mxGeometry width="80" relative="1" as="geometry">
            <mxPoint x="110" y="270" as="sourcePoint" />
            <mxPoint x="270" y="270" as="targetPoint" />
          </mxGeometry>
        </mxCell>
        <mxCell id="CZLHfKdbHsDjYVJbHo4A-20" value="handleLogin(username,password)" style="html=1;verticalAlign=bottom;endArrow=block;curved=0;rounded=0;" edge="1" parent="1" target="CZLHfKdbHsDjYVJbHo4A-58">
          <mxGeometry x="0.0667" y="10" width="80" relative="1" as="geometry">
            <mxPoint x="290" y="300" as="sourcePoint" />
            <mxPoint x="519.5" y="300" as="targetPoint" />
            <mxPoint as="offset" />
          </mxGeometry>
        </mxCell>
        <mxCell id="CZLHfKdbHsDjYVJbHo4A-24" value="handleLogin(username,password)" style="html=1;verticalAlign=bottom;endArrow=block;curved=0;rounded=0;" edge="1" parent="1">
          <mxGeometry width="80" relative="1" as="geometry">
            <mxPoint x="520" y="320" as="sourcePoint" />
            <mxPoint x="729.5" y="320" as="targetPoint" />
          </mxGeometry>
        </mxCell>
        <mxCell id="CZLHfKdbHsDjYVJbHo4A-27" value="validate username and password" style="html=1;verticalAlign=bottom;endArrow=block;curved=0;rounded=0;" edge="1" parent="1">
          <mxGeometry width="80" relative="1" as="geometry">
            <mxPoint x="730" y="350" as="sourcePoint" />
            <mxPoint x="919.5" y="350" as="targetPoint" />
          </mxGeometry>
        </mxCell>
        <mxCell id="CZLHfKdbHsDjYVJbHo4A-30" value="alt" style="shape=umlFrame;whiteSpace=wrap;html=1;pointerEvents=0;" vertex="1" parent="1">
          <mxGeometry x="-100" y="380" width="1300" height="270" as="geometry" />
        </mxCell>
        <mxCell id="CZLHfKdbHsDjYVJbHo4A-31" value="valid" style="html=1;verticalAlign=bottom;endArrow=open;dashed=1;endSize=8;curved=0;rounded=0;" edge="1" parent="1">
          <mxGeometry relative="1" as="geometry">
            <mxPoint x="920" y="400" as="sourcePoint" />
            <mxPoint x="735" y="400" as="targetPoint" />
          </mxGeometry>
        </mxCell>
        <mxCell id="CZLHfKdbHsDjYVJbHo4A-32" value="valid" style="html=1;verticalAlign=bottom;endArrow=open;dashed=1;endSize=8;curved=0;rounded=0;" edge="1" parent="1">
          <mxGeometry relative="1" as="geometry">
            <mxPoint x="725" y="420" as="sourcePoint" />
            <mxPoint x="525" y="420" as="targetPoint" />
          </mxGeometry>
        </mxCell>
        <mxCell id="CZLHfKdbHsDjYVJbHo4A-35" value="switchToDashboard" style="html=1;verticalAlign=bottom;endArrow=block;curved=0;rounded=0;" edge="1" parent="1" target="CZLHfKdbHsDjYVJbHo4A-70">
          <mxGeometry x="0.0009" width="80" relative="1" as="geometry">
            <mxPoint x="520" y="490" as="sourcePoint" />
            <mxPoint x="1090" y="490" as="targetPoint" />
            <mxPoint as="offset" />
          </mxGeometry>
        </mxCell>
        <mxCell id="CZLHfKdbHsDjYVJbHo4A-42" value="invalid" style="html=1;verticalAlign=bottom;endArrow=open;dashed=1;endSize=8;curved=0;rounded=0;" edge="1" parent="1">
          <mxGeometry relative="1" as="geometry">
            <mxPoint x="920" y="549" as="sourcePoint" />
            <mxPoint x="730" y="550" as="targetPoint" />
          </mxGeometry>
        </mxCell>
        <mxCell id="CZLHfKdbHsDjYVJbHo4A-43" value="invalid&amp;nbsp;" style="html=1;verticalAlign=bottom;endArrow=open;dashed=1;endSize=8;curved=0;rounded=0;" edge="1" parent="1">
          <mxGeometry relative="1" as="geometry">
            <mxPoint x="730" y="570" as="sourcePoint" />
            <mxPoint x="525" y="570" as="targetPoint" />
          </mxGeometry>
        </mxCell>
        <mxCell id="CZLHfKdbHsDjYVJbHo4A-44" value="invalid&amp;nbsp;" style="html=1;verticalAlign=bottom;endArrow=open;dashed=1;endSize=8;curved=0;rounded=0;" edge="1" parent="1">
          <mxGeometry relative="1" as="geometry">
            <mxPoint x="525" y="590" as="sourcePoint" />
            <mxPoint x="289.5" y="590" as="targetPoint" />
          </mxGeometry>
        </mxCell>
        <mxCell id="CZLHfKdbHsDjYVJbHo4A-45" value="" style="endArrow=none;dashed=1;html=1;rounded=0;exitX=0;exitY=0.515;exitDx=0;exitDy=0;exitPerimeter=0;entryX=0.999;entryY=0.515;entryDx=0;entryDy=0;entryPerimeter=0;" edge="1" parent="1" source="CZLHfKdbHsDjYVJbHo4A-30" target="CZLHfKdbHsDjYVJbHo4A-30">
          <mxGeometry width="50" height="50" relative="1" as="geometry">
            <mxPoint x="-10" y="520" as="sourcePoint" />
            <mxPoint x="1200" y="520" as="targetPoint" />
          </mxGeometry>
        </mxCell>
        <mxCell id="CZLHfKdbHsDjYVJbHo4A-46" value="[if valid username and password]" style="text;html=1;align=center;verticalAlign=middle;resizable=0;points=[];autosize=1;strokeColor=none;fillColor=none;" vertex="1" parent="1">
          <mxGeometry x="-100" y="415" width="200" height="30" as="geometry" />
        </mxCell>
        <mxCell id="CZLHfKdbHsDjYVJbHo4A-47" value="[if invalid username and password]" style="text;html=1;align=center;verticalAlign=middle;resizable=0;points=[];autosize=1;strokeColor=none;fillColor=none;" vertex="1" parent="1">
          <mxGeometry x="-105" y="530" width="210" height="30" as="geometry" />
        </mxCell>
        <mxCell id="CZLHfKdbHsDjYVJbHo4A-57" value="LoginController" style="shape=umlLifeline;perimeter=lifelinePerimeter;whiteSpace=wrap;html=1;container=1;dropTarget=0;collapsible=0;recursiveResize=0;outlineConnect=0;portConstraint=eastwest;newEdgeStyle={&quot;curved&quot;:0,&quot;rounded&quot;:0};participant=umlControl;size=90;" vertex="1" parent="1">
          <mxGeometry x="480" y="70" width="80" height="650" as="geometry" />
        </mxCell>
        <mxCell id="CZLHfKdbHsDjYVJbHo4A-58" value="" style="html=1;points=[[0,0,0,0,5],[0,1,0,0,-5],[1,0,0,0,5],[1,1,0,0,-5]];perimeter=orthogonalPerimeter;outlineConnect=0;targetShapes=umlLifeline;portConstraint=eastwest;newEdgeStyle={&quot;curved&quot;:0,&quot;rounded&quot;:0};" vertex="1" parent="CZLHfKdbHsDjYVJbHo4A-57">
          <mxGeometry x="35" y="230" width="10" height="310" as="geometry" />
        </mxCell>
        <mxCell id="CZLHfKdbHsDjYVJbHo4A-59" value="DAO" style="shape=umlLifeline;perimeter=lifelinePerimeter;whiteSpace=wrap;html=1;container=1;dropTarget=0;collapsible=0;recursiveResize=0;outlineConnect=0;portConstraint=eastwest;newEdgeStyle={&quot;curved&quot;:0,&quot;rounded&quot;:0};participant=umlControl;size=90;" vertex="1" parent="1">
          <mxGeometry x="690" y="70" width="80" height="650" as="geometry" />
        </mxCell>
        <mxCell id="CZLHfKdbHsDjYVJbHo4A-60" value="" style="html=1;points=[[0,0,0,0,5],[0,1,0,0,-5],[1,0,0,0,5],[1,1,0,0,-5]];perimeter=orthogonalPerimeter;outlineConnect=0;targetShapes=umlLifeline;portConstraint=eastwest;newEdgeStyle={&quot;curved&quot;:0,&quot;rounded&quot;:0};" vertex="1" parent="CZLHfKdbHsDjYVJbHo4A-59">
          <mxGeometry x="35" y="250" width="10" height="290" as="geometry" />
        </mxCell>
        <mxCell id="CZLHfKdbHsDjYVJbHo4A-64" value="Database" style="shape=umlLifeline;perimeter=lifelinePerimeter;whiteSpace=wrap;html=1;container=1;dropTarget=0;collapsible=0;recursiveResize=0;outlineConnect=0;portConstraint=eastwest;newEdgeStyle={&quot;curved&quot;:0,&quot;rounded&quot;:0};participant=umlEntity;size=80;" vertex="1" parent="1">
          <mxGeometry x="880" y="80" width="80" height="640" as="geometry" />
        </mxCell>
        <mxCell id="CZLHfKdbHsDjYVJbHo4A-71" value="" style="html=1;points=[[0,0,0,0,5],[0,1,0,0,-5],[1,0,0,0,5],[1,1,0,0,-5]];perimeter=orthogonalPerimeter;outlineConnect=0;targetShapes=umlLifeline;portConstraint=eastwest;newEdgeStyle={&quot;curved&quot;:0,&quot;rounded&quot;:0};" vertex="1" parent="CZLHfKdbHsDjYVJbHo4A-64">
          <mxGeometry x="35" y="320" width="10" height="210" as="geometry" />
        </mxCell>
        <mxCell id="CZLHfKdbHsDjYVJbHo4A-67" value="LoginView" style="shape=umlLifeline;perimeter=lifelinePerimeter;whiteSpace=wrap;html=1;container=1;dropTarget=0;collapsible=0;recursiveResize=0;outlineConnect=0;portConstraint=eastwest;newEdgeStyle={&quot;curved&quot;:0,&quot;rounded&quot;:0};participant=umlBoundary;size=80;" vertex="1" parent="1">
          <mxGeometry x="240" y="80" width="90" height="640" as="geometry" />
        </mxCell>
        <mxCell id="CZLHfKdbHsDjYVJbHo4A-68" value="" style="html=1;points=[[0,0,0,0,5],[0,1,0,0,-5],[1,0,0,0,5],[1,1,0,0,-5]];perimeter=orthogonalPerimeter;outlineConnect=0;targetShapes=umlLifeline;portConstraint=eastwest;newEdgeStyle={&quot;curved&quot;:0,&quot;rounded&quot;:0};" vertex="1" parent="CZLHfKdbHsDjYVJbHo4A-67">
          <mxGeometry x="40" y="190" width="10" height="350" as="geometry" />
        </mxCell>
        <mxCell id="CZLHfKdbHsDjYVJbHo4A-69" value="DashboardView" style="shape=umlLifeline;perimeter=lifelinePerimeter;whiteSpace=wrap;html=1;container=1;dropTarget=0;collapsible=0;recursiveResize=0;outlineConnect=0;portConstraint=eastwest;newEdgeStyle={&quot;curved&quot;:0,&quot;rounded&quot;:0};participant=umlBoundary;size=80;" vertex="1" parent="1">
          <mxGeometry x="1040" y="80" width="90" height="640" as="geometry" />
        </mxCell>
        <mxCell id="CZLHfKdbHsDjYVJbHo4A-70" value="" style="html=1;points=[[0,0,0,0,5],[0,1,0,0,-5],[1,0,0,0,5],[1,1,0,0,-5]];perimeter=orthogonalPerimeter;outlineConnect=0;targetShapes=umlLifeline;portConstraint=eastwest;newEdgeStyle={&quot;curved&quot;:0,&quot;rounded&quot;:0};" vertex="1" parent="CZLHfKdbHsDjYVJbHo4A-69">
          <mxGeometry x="40" y="410" width="10" height="80" as="geometry" />
        </mxCell>
      </root>
    </mxGraphModel>
  </diagram>
</mxfile>
